<?xml version="1.0" encoding="UTF-8"?>
<!DOCTYPE svg PUBLIC "-//W3C//DTD SVG 1.1//EN" "http://www.w3.org/Graphics/SVG/1.1/DTD/svg11.dtd">
<svg xmlns="http://www.w3.org/2000/svg" version="1.1" width="512px" height="512px" style="shape-rendering:geometricPrecision; text-rendering:geometricPrecision; image-rendering:optimizeQuality; fill-rule:evenodd; clip-rule:evenodd" xmlns:xlink="http://www.w3.org/1999/xlink">
<g><path style="opacity:0.983" fill="#000000" d="M 185.5,-0.5 C 232.167,-0.5 278.833,-0.5 325.5,-0.5C 343.484,4.65165 354.984,16.3183 360,34.5C 360.5,42.8267 360.666,51.16 360.5,59.5C 388.835,59.3334 417.169,59.5 445.5,60C 471.459,68.4013 482.959,86.2346 480,113.5C 476.41,130.256 466.577,141.59 450.5,147.5C 441.11,257.51 431.61,367.51 422,477.5C 416.545,495.122 405.045,506.456 387.5,511.5C 299.5,511.5 211.5,511.5 123.5,511.5C 105.955,506.456 94.4545,495.122 89,477.5C 79.3897,367.51 69.8897,257.51 60.5,147.5C 37.1817,137.544 27.3484,119.878 31,94.5C 35.8333,76.3333 47.3333,64.8333 65.5,60C 93.8314,59.5 122.165,59.3334 150.5,59.5C 146.235,35.3984 154.235,16.8984 174.5,4C 178.307,2.57157 181.974,1.07157 185.5,-0.5 Z M 195.5,29.5 C 237.206,29.028 278.873,29.528 320.5,31C 324.667,32.5 327.5,35.3333 329,39.5C 330.274,46.1028 330.774,52.7695 330.5,59.5C 280.5,59.5 230.5,59.5 180.5,59.5C 180.226,52.7695 180.726,46.1028 182,39.5C 184.982,34.0048 189.482,30.6715 195.5,29.5 Z M 75.5,89.5 C 195.5,89.3333 315.5,89.5 435.5,90C 449.528,93.5627 453.028,101.729 446,114.5C 443.044,117.227 439.544,118.727 435.5,119C 315.5,119.667 195.5,119.667 75.5,119C 61.4716,115.437 57.9716,107.271 65,94.5C 68.1466,91.8409 71.6466,90.1743 75.5,89.5 Z M 92.5,149.5 C 201.167,149.5 309.833,149.5 418.5,149.5C 410.049,257.252 400.882,364.918 391,472.5C 388.051,477.728 383.551,480.561 377.5,481C 296.167,481.667 214.833,481.667 133.5,481C 127.449,480.561 122.949,477.728 120,472.5C 110.118,364.918 100.951,257.252 92.5,149.5 Z"/></g>
<g><path style="opacity:0.964" fill="#000000" d="M 159.5,179.5 C 171.369,177.233 178.536,181.9 181,193.5C 185.979,272.658 190.812,351.825 195.5,431C 197.615,440.095 194.615,446.762 186.5,451C 174.593,453.725 167.427,449.225 165,437.5C 160.021,358.342 155.188,279.175 150.5,200C 148.54,190.769 151.54,183.936 159.5,179.5 Z"/></g>
<g><path style="opacity:0.993" fill="#000000" d="M 249.5,179.5 C 258.822,177.251 265.655,180.251 270,188.5C 270.667,273.167 270.667,357.833 270,442.5C 264.848,451.475 257.348,453.975 247.5,450C 244.527,448.235 242.36,445.735 241,442.5C 240.333,357.833 240.333,273.167 241,188.5C 242.688,184.315 245.521,181.315 249.5,179.5 Z"/></g>
<g><path style="opacity:0.964" fill="#000000" d="M 339.5,179.5 C 355.248,177.415 362.248,184.248 360.5,200C 355.934,280.886 350.768,361.719 345,442.5C 340.652,450.915 333.819,453.748 324.5,451C 316.405,446.8 313.405,440.133 315.5,431C 320.188,351.825 325.021,272.658 330,193.5C 330.959,187.223 334.126,182.556 339.5,179.5 Z"/></g>
</svg>
