<?xml version="1.0" encoding="UTF-8"?>
<!DOCTYPE svg PUBLIC "-//W3C//DTD SVG 1.1//EN" "http://www.w3.org/Graphics/SVG/1.1/DTD/svg11.dtd">
<svg xmlns="http://www.w3.org/2000/svg" version="1.1" width="512px" height="512px" style="shape-rendering:geometricPrecision; text-rendering:geometricPrecision; image-rendering:optimizeQuality; fill-rule:evenodd; clip-rule:evenodd" xmlns:xlink="http://www.w3.org/1999/xlink">
<g><path style="opacity:0.977" fill="#000000" d="M 387.5,-0.5 C 415.167,-0.5 442.833,-0.5 470.5,-0.5C 474.479,1.31481 477.312,4.31481 479,8.5C 479.976,28.9227 479.643,49.2561 478,69.5C 476.235,72.473 473.735,74.6396 470.5,76C 459.215,77.2171 447.882,77.8838 436.5,78C 425.667,88.8333 414.833,99.6667 404,110.5C 405.065,113.606 407.065,116.273 410,118.5C 413.763,124.457 414.429,130.79 412,137.5C 400.5,149 389,160.5 377.5,172C 384.48,180.936 388.314,191.103 389,202.5C 389.667,288.167 389.667,373.833 389,459.5C 385.825,486.84 370.991,504.173 344.5,511.5C 244.167,511.5 143.833,511.5 43.5,511.5C 20.5,505.167 5.83333,490.5 -0.5,467.5C -0.5,346.833 -0.5,226.167 -0.5,105.5C 5.65211,82.5151 20.3188,68.0151 43.5,62C 110.814,60.3682 178.147,60.0348 245.5,61C 257.645,61.2698 268.479,65.1031 278,72.5C 289.895,59.9355 302.395,48.1021 315.5,37C 324.825,35.1089 332.159,38.1089 337.5,46C 338.167,46.6667 338.833,46.6667 339.5,46C 355.091,29.906 371.091,14.406 387.5,-0.5 Z M 399.5,29.5 C 416.167,29.5 432.833,29.5 449.5,29.5C 449.5,35.1667 449.5,40.8333 449.5,46.5C 441.493,46.3336 433.493,46.5003 425.5,47C 424.167,47.6667 422.833,48.3333 421.5,49C 408,62.5 394.5,76 381,89.5C 374.167,82.6667 367.333,75.8333 360.5,69C 373.702,55.9652 386.702,42.7985 399.5,29.5 Z M 319.5,74.5 C 338.762,92.094 357.429,110.427 375.5,129.5C 369.181,136.319 362.681,142.986 356,149.5C 337.5,131 319,112.5 300.5,94C 307.036,87.6315 313.369,81.1315 319.5,74.5 Z M 52.5,91.5 C 116.834,91.3333 181.168,91.5 245.5,92C 249.768,92.5339 253.768,93.8673 257.5,96C 289.667,128.167 321.833,160.333 354,192.5C 355.927,195.948 357.261,199.615 358,203.5C 358.667,288.5 358.667,373.5 358,458.5C 355.574,472.26 347.407,479.76 333.5,481C 240.5,481.667 147.5,481.667 54.5,481C 39.6667,479.5 31.5,471.333 30,456.5C 29.3333,343.167 29.3333,229.833 30,116.5C 31.4256,102.579 38.9256,94.2461 52.5,91.5 Z M 103.5,151.5 C 145.501,151.333 187.501,151.5 229.5,152C 238.833,161.333 248.167,170.667 257.5,180C 205.833,180.667 154.167,180.667 102.5,180C 90.9555,176.075 87.7889,168.575 93,157.5C 95.9746,154.311 99.4746,152.311 103.5,151.5 Z M 160.5,312.5 C 183.167,312.5 205.833,312.5 228.5,312.5C 228.5,335.167 228.5,357.833 228.5,380.5C 205.833,380.5 183.167,380.5 160.5,380.5C 160.5,357.833 160.5,335.167 160.5,312.5 Z"/></g>
<g><path style="opacity:0.965" fill="#000000" d="M 102.5,120.5 C 148.872,120.025 195.206,120.525 241.5,122C 242.833,122.667 244.167,123.333 245.5,124C 266,144.5 286.5,165 307,185.5C 313.706,198.898 309.873,207.398 295.5,211C 231.167,211.667 166.833,211.667 102.5,211C 71.1431,206.304 56.9764,188.137 60,156.5C 66.1362,134.853 80.3029,122.853 102.5,120.5 Z M 103.5,151.5 C 99.4746,152.311 95.9746,154.311 93,157.5C 87.7889,168.575 90.9555,176.075 102.5,180C 154.167,180.667 205.833,180.667 257.5,180C 248.167,170.667 238.833,161.333 229.5,152C 187.501,151.5 145.501,151.333 103.5,151.5 Z"/></g>
<g><path style="opacity:0.962" fill="#000000" d="M 511.5,216.5 C 511.5,222.5 511.5,228.5 511.5,234.5C 502.573,260.646 484.24,272.146 456.5,269C 429.068,259.885 417.901,241.052 423,212.5C 430.99,192.864 441.823,175.031 455.5,159C 463.125,154.206 470.625,154.372 478,159.5C 492.278,176.729 503.444,195.729 511.5,216.5 Z M 465.5,197.5 C 467.074,197.937 468.241,198.937 469,200.5C 474.33,207.991 478.163,216.158 480.5,225C 479.929,233.738 475.262,238.238 466.5,238.5C 455.972,237.136 451.472,231.136 453,220.5C 457.191,212.779 461.358,205.113 465.5,197.5 Z"/></g>
<g><path style="opacity:0.966" fill="#000000" d="M 109.5,251.5 C 115.351,250.674 120.684,251.841 125.5,255C 134.167,263.667 142.833,272.333 151.5,281C 179.833,281.667 208.167,281.667 236.5,281C 245.863,271.303 255.53,261.97 265.5,253C 278.778,248.486 286.778,252.986 289.5,266.5C 288.894,270.028 287.728,273.361 286,276.5C 277.333,285.167 268.667,293.833 260,302.5C 259.333,331.5 259.333,360.5 260,389.5C 269.364,398.53 278.364,407.863 287,417.5C 291.123,427.224 288.623,434.724 279.5,440C 274.713,440.879 270.047,440.545 265.5,439C 255.53,430.03 245.863,420.697 236.5,411C 208.167,410.333 179.833,410.333 151.5,411C 141.769,421.4 131.436,431.067 120.5,440C 108.105,442.751 101.105,437.918 99.5,425.5C 99.542,422.741 100.042,420.075 101,417.5C 109.97,407.53 119.303,397.863 129,388.5C 129.667,360.167 129.667,331.833 129,303.5C 120.333,294.833 111.667,286.167 103,277.5C 96.6469,266.518 98.8135,257.852 109.5,251.5 Z M 160.5,312.5 C 160.5,335.167 160.5,357.833 160.5,380.5C 183.167,380.5 205.833,380.5 228.5,380.5C 228.5,357.833 228.5,335.167 228.5,312.5C 205.833,312.5 183.167,312.5 160.5,312.5 Z"/></g>
</svg>
